# xmcd
#
# Track frame offsets:
#	150
#	16822
#	35669
#	51751
#	69675
#	88561
#	103885
#	118014
#	133123
#	149125
#	162994
#	179807
#	195229
#	212992
#	227662
#	244362
#	256624
#	277120
#	293404
#	310029
#	322634
#	335409
#
# Disc length: 4700 seconds
#
# Revision: 0
# Processed by: cddbd v1.5.2PL0 Copyright (c) Steve Scherf et al.
# Submitted via: EasyCDDAExtractor 11.0.2.1
#
DISCID=49125a16
DTITLE=Various Artist - Country Hits, Vol. 05
DYEAR=2008
DGENRE=Country
TTITLE0=Trace Adkins - Ladies Love Country Boys
TTITLE1=Trisha Yearwood - They Call It Falling For A Reason
TTITLE2=Kimberly Kelly - A Cryin' Shame
TTITLE3=Shooter Jennings - Walk Of Life
TTITLE4=Garth Brooks - The Beaches Of Cheyenne
TTITLE5=Josh Turner - Baby, I Go Crazy
TTITLE6=Harlan T. Bobo - So Bad?
TTITLE7=George Strait - The Cowboy Rides Away
TTITLE8=The Sunny Cowgirls - Six Pack Short
TTITLE9=Lee Kernaghan - Listen To The Radio
TTITLE10=Keith Urban - But For The Grace Of God
TTITLE11=Dixie Chicks - Am I The Only One (Who's Ever Felt This Way)
TTITLE12=Melinda Schneider - Big World Small World
TTITLE13=Gail Davies - I'm A Little Bit Lonely
TTITLE14=Catherine Britt - Swingin' Door
TTITLE15=Luke O'shea and Medicine Wheel - Making Memories
TTITLE16=Matt Scullion Featuring Lawrie Minson - Hard Earned Money
TTITLE17=George Strait - Adalida
TTITLE18=Nick Gillis - Leavin' You For Myself
TTITLE19=Gretchen Wilson - California Girls
TTITLE20=Sugarland - Down In Mississippi (Up To No Good)
TTITLE21=The Mcclymonts - Something That My Heart Does
EXTD=
EXTT0=
EXTT1=
EXTT2=
EXTT3=
EXTT4=
EXTT5=
EXTT6=
EXTT7=
EXTT8=
EXTT9=
EXTT10=
EXTT11=
EXTT12=
EXTT13=
EXTT14=
EXTT15=
EXTT16=
EXTT17=
EXTT18=
EXTT19=
EXTT20=
EXTT21=
PLAYORDER=
